<?xml version="1.0" encoding="utf-8"?>
<!-- Generator: Adobe Illustrator 22.0.1, SVG Export Plug-In . SVG Version: 6.00 Build 0)  -->
<svg version="1.1" id="Layer_1" xmlns="http://www.w3.org/2000/svg" xmlns:xlink="http://www.w3.org/1999/xlink" x="0px" y="0px"
	 viewBox="0 0 220.5 232.5" style="enable-background:new 0 0 220.5 232.5;" xml:space="preserve">
<style type="text/css">
	.st0{fill:#FDFEFE;}
	.st1{fill:#A8D1E7;}
	.st2{fill:none;stroke:#000000;stroke-width:5;stroke-miterlimit:10;}
	.st3{fill:#F7E9A0;}
	.st4{fill:#F76D6D;}
	.st5{fill:#FFFFFF;}
	.st6{fill:#24315E;}
	.st7{fill:#374785;}
</style>
<path d="M108.7,220.8c-25.8,0-51.7,0.1-77.5,0c-18.4-0.1-24.6-6.4-24.6-24.7c0-44.3,0-88.6,0-133c0-8.8-0.1-17.7,0.2-26.5
	c0.4-12.6,7-19.5,19.6-20.8c2.6-0.3,5.3-0.3,8-0.3c49.7,0,99.3,0,149,0c3.6,0,7.3,0.2,10.9,0.8c10.2,1.7,15.8,8,16.7,18.2
	c0.3,3,0.3,6,0.3,9c0,50.7,0,101.3,0,152c0,2,0,4-0.2,6c-0.7,12-7.5,18.9-19.4,19c-27.7,0.2-55.3,0.1-83,0.1
	C108.7,220.6,108.7,220.7,108.7,220.8z M61.2,142.4c0.7,0.1,1.3,0.2,2,0.4c0,1.8,0,3.6,0,5.4c0,11.2,0,22.3,0,33.5
	c0,3.7,1.7,6.3,5.5,6.3c3.8,0,5.6-2.5,5.8-6.1c0.1-2.2,0-4.3,0-6.5c0-10.8,0-21.5,0-32.7c4.9,0,9.1,0,14.1,0
	c-5.1-18-10-35.4-14.9-52.8c0.6-0.2,1.2-0.3,1.7-0.5c0.5,1.5,1.1,2.9,1.6,4.4c2.5,8.3,5.1,16.5,7.6,24.8c0.9,3.2,2.4,6,6.2,4.7
	c3.6-1.2,4.3-4.3,3.2-7.8c-3.3-10.6-6.4-21.3-10-31.9c-2.3-6.9-8.4-10.9-15.7-10.9c-4.7-0.1-9.3-0.1-14,0C47.5,72.9,42,76.9,40,83.2
	c-3.4,10.6-6.6,21.2-10,31.9c-1.1,3.5-1.2,7,3,8.1c4,1.1,5.5-2.1,6.5-5.3c2.5-8.1,4.9-16.2,7.4-24.3c0.5-1.5,1.1-2.9,1.7-4.4
	c0.5,0.2,1.1,0.4,1.6,0.6c-5,17.4-10.1,34.9-15.3,52.8c5,0,9.4,0,14.2,0c0.1,2,0.2,3.6,0.2,5.3c0,10.2,0,20.3,0,30.5
	c0,1.2,0,2.3,0,3.5c0.1,3.7,1.7,6.3,5.7,6.1c3.6-0.1,5.2-2.6,5.2-6.1c0-11.7,0-23.3,0-35C60.3,145.4,60.9,143.9,61.2,142.4z
	 M155.1,128.7c0.5,0,0.9,0,1.4,0c0.1,1.7,0.3,3.4,0.3,5c0,15.5,0,31,0.1,46.5c0,4.8,2.7,7.5,6.8,7.5c4.6-0.1,6.4-3,6.7-7.1
	c0.1-1.5,0.1-3,0.1-4.5c0-26.5,0-53,0-79.5c0-1.8,0.2-3.6,0.4-5.5c0.5,0,1,0,1.5,0c0.1,1.5,0.3,3.1,0.3,4.6c0,8.7,0,17.3,0,26
	c0,3.4,0.3,6.7,4.6,6.8c4.4,0.2,5.5-3,5.5-6.7c0-11.2,0.1-22.3,0-33.5c-0.2-9.1-6.9-15.6-16-15.8c-7.3-0.1-14.7-0.1-22,0
	c-9.3,0.1-15.7,6.5-15.8,15.8c-0.1,11.2,0,22.3,0,33.5c0,3.5,0.7,6.6,4.9,6.7c4.5,0.1,5.3-3.2,5.2-6.9c0-8.8,0-17.7,0-26.5
	c0-1.3,0.3-2.6,0.4-3.9c0.5,0,0.9,0,1.4,0.1c0.1,1.7,0.2,3.4,0.2,5.1c0,26.8,0,53.6,0,80.5c0,2-0.4,4.4,0.6,5.8
	c1.4,2,3.9,4.6,5.9,4.6c2.1,0,4.6-2.4,6.4-4.3c0.9-1,0.6-3.2,0.6-4.8c0-14.8,0-29.7,0-44.5C154.8,132.1,155,130.4,155.1,128.7z
	 M103.5,48c0,46.7,0,92.7,0,139c4.3,0,8.2,0,12.2,0c0-46.5,0-92.7,0-139C111.5,48,107.7,48,103.5,48z M155.5,69.6
	c6.7,0.1,12-4.9,12-11.4c0-6-5.5-11.4-11.7-11.5c-6.1-0.1-11.6,5.3-11.7,11.4C144.1,64.5,149,69.5,155.5,69.6z M62.1,69.6
	c6.3-0.1,11.7-5.3,11.7-11.3c0-6-6.2-11.8-12.2-11.6c-6.3,0.3-11.2,5.5-11.1,11.8C50.7,65.2,55.4,69.7,62.1,69.6z"/>
</svg>
