<?xml version="1.0" encoding="utf-8"?>
<!-- Generator: Adobe Illustrator 24.0.2, SVG Export Plug-In . SVG Version: 6.00 Build 0)  -->
<svg version="1.1" id="Layer_1" xmlns="http://www.w3.org/2000/svg" xmlns:xlink="http://www.w3.org/1999/xlink" x="0px" y="0px"
	 viewBox="0 0 101 100" style="enable-background:new 0 0 101 100;" xml:space="preserve">
<style type="text/css">
	.st0{fill:#F7B916;}
	.st1{fill:#1F3562;}
	.st2{fill:#1F3561;}
</style>
<g>
	<g id="g5075" transform="matrix(0.99999234,0,0,0.99999234,58.570296,28.348268)">
		<path id="path5077" class="st0" d="M4.9,55.8L33.2,7.7c-0.5-1.3-1-2.6-1.6-3.9l-50.2-21.2l-32.1,46c0.1,0.7,0.2,1.5,0.4,2.2
			L4.9,55.8z"/>
	</g>
	<g id="g5067" transform="matrix(0.99999234,0,0,0.99999234,58.159199,29.901056)">
		<path id="path5069" class="st2" d="M0,10.4l-1.7-4.9l-14.8-19.8l2.7-0.7L11.7,7.1l15.1-4.3c1.8-0.5,3.8-0.6,5.3-0.5
			C27.3-7.9,18.7-16.3,7.2-20.4C-15.4-28.4-40.2-16.6-48.3,6c-2.5,7-3.1,14.2-2,21.1l36.1-12.5L0,10.4z"/>
	</g>
	<g id="g5071" transform="matrix(0.99999234,0,0,0.99999234,66.864432,31.007047)">
		<path id="path5073" class="st2" d="M24.9,5.1c-1.3,0.8-3.3,2-5.2,2.6L4.6,12L-5.4,44.3L-8,45.1l2.1-24.7l-1.2-5.1l-14.1,4
			l-37.4,8.8c3,14.4,13.1,26.9,28,32.2C-8,68.4,16.8,56.6,24.9,34C28.3,24.3,28.1,14.1,24.9,5.1"/>
	</g>
	<g id="g5079" transform="matrix(0.99999234,0,0,0.99999234,66.227037,16.871356)">
		<path id="path5081" class="st2" d="M23.1,73.8c-2.4,0-3.9-1.9-3.9-4.1c0-2.4,1.7-4.2,3.9-4.2c2.2,0,3.8,1.7,3.8,4.2
			C26.9,72.1,25.3,73.8,23.1,73.8 M23.1,65c-2.4,0-4.5,1.8-4.5,4.6c0,2.6,1.9,4.6,4.5,4.6c2.4,0,4.5-1.8,4.5-4.6
			C27.6,66.9,25.5,65,23.1,65"/>
	</g>
	<g id="g5083" transform="matrix(0.99999234,0,0,0.99999234,65.945939,18.043847)">
		<path id="path5085" class="st2" d="M22.3,68.1v-1.7h1.1c0.6,0,1.3,0.1,1.3,0.8c0,0.8-0.6,0.9-1.3,0.9H22.3z M25.5,67.3
			c0-1.1-0.7-1.6-2-1.6h-2.1v5.5h0.9v-2.3h0.8l1.4,2.3h1l-1.5-2.4C24.9,68.7,25.5,68.3,25.5,67.3"/>
	</g>
</g>
</svg>
