<?xml version="1.0" encoding="utf-8"?>
<!-- Generator: Adobe Illustrator 22.0.1, SVG Export Plug-In . SVG Version: 6.00 Build 0)  -->
<svg version="1.1" id="Layer_1" xmlns="http://www.w3.org/2000/svg" xmlns:xlink="http://www.w3.org/1999/xlink" x="0px" y="0px"
	 viewBox="0 0 216 216" style="enable-background:new 0 0 216 216;" xml:space="preserve">
<style type="text/css">
	.st0{fill:#FDFDFD;}
	.st1{fill:#111224;}
	.st2{fill:#1F86C9;}
	.st3{fill:#EEEFEF;}
	.st4{fill:#FFFFFF;}
	.st5{fill:none;stroke:#000000;stroke-width:2.9431;stroke-linecap:round;stroke-miterlimit:10;}
</style>
<g>
	<g>
		<g>
			<path d="M98.2,24C71.6,24,50,45.6,50,72.2c0,1.5,0.1,3,0.3,4.6c1.4,3.1,3.5,5.9,6.1,8.4c2.3,2.3,4.9,4.1,7.7,5.7
				c8.9,4.9,18.6,6.8,28.7,7.1c5,0.1,9.9-0.2,14.8-0.9c4.6-0.7,9.2-1.7,13.6-3.1c0.1,0,0.2-0.1,0.4-0.1c2.6-0.7,5.3-1.5,7.8-2.5
				c0.1,0,0.3,0,0.4-0.1c5-1.7,9.9-3.8,14.7-6c1.2-4.6,1.9-9,1.9-13.2C146.4,45.6,124.7,24,98.2,24z M98.2,96.4
				C84.8,96.4,74,85.5,74,72.2c0-13.4,10.9-24.2,24.2-24.2c13.4,0,24.2,10.9,24.2,24.2C122.4,85.5,111.6,96.4,98.2,96.4z
				 M132.4,99.9c-0.2,0.1-0.4,0.3-0.6,0.4c-0.1,0.1-0.3,0.1-0.4,0.2c-6,3-12.1,5.5-18.5,7.5c-6.1,1.9-12.3,3.3-18.6,4.1
				c-5.5,0.6-11,0.8-16.5,0.4c-5.3-0.4-10.6-1.3-15.6-3C75,133.1,93.8,154.2,95,155.6c1.7,1.9,4.7,1.9,6.5,0
				c1.4-1.6,28.5-32,39.9-61C138.5,96.5,135.5,98.3,132.4,99.9z"/>
		</g>
	</g>
	<g>
		<path d="M148,85.7c0.1,0,0.1,0,0.2-0.1c0.3-0.1,0.5-0.5,0.8-0.1c0.3,0.4-0.1,0.6-0.3,0.8c-1,0.8-2,1.6-3,2.3
			c-4.2,3.1-8.6,5.9-13.3,8.3c-0.2,0.1-0.4,0.3-0.6,0.4c-0.1,0.1-0.3,0.1-0.4,0.2c-6,3-12.1,5.5-18.5,7.5
			c-6.1,1.9-12.3,3.3-18.6,4.1c-5.5,0.6-11,0.8-16.5,0.4c-5.4-0.4-10.7-1.4-15.8-3c-4.3-1.4-8.4-3.4-12.1-5.9
			c-3.4-2.5-6.3-5.4-8.5-9C37,84.5,36.9,77.3,40.9,70c2.7-4.9,5.7-9.2,9.8-12.9l0.7-0.7c0,0-0.6,1.2-0.7,1.5c-1.9,3-2.6,6.5-3.3,10
			c-0.1,0.3-0.1,0.7-0.1,1c-0.3,1-0.3,2-0.3,3c0.3,6.5,3.2,11.9,7.9,16.3c2.3,2.3,4.9,4.1,7.7,5.7c8.9,4.9,18.6,6.8,28.7,7.1
			c5,0.1,9.9-0.2,14.8-1c4.6-0.7,9.2-1.7,13.6-3.1c0.1,0,0.2-0.1,0.3-0.1c2.6-0.7,5.3-1.5,7.8-2.5c0.1,0,0.3,0,0.4-0.1
			c6.6-2.3,13-5.1,19.2-8.2C147.7,86,147.9,85.8,148,85.7z"/>
	</g>
	<line class="st5" x1="87.3" y1="65.9" x2="87.3" y2="68.1"/>
	<line class="st5" x1="110.1" y1="65.9" x2="110.1" y2="68.1"/>
	<path d="M99.3,73.1c-1.4,0-2.5-0.5-3.4-1.4c-0.6-0.6-0.6-1.2-0.1-1.7c0.4-0.4,1.1-0.4,1.6,0c1.5,1.1,2.3,1.2,3.8,0
		c0.6-0.4,1.3-0.4,1.7,0c0.4,0.5,0.4,1.1-0.2,1.7C101.7,72.6,100.5,73,99.3,73.1z"/>
	<g>
		<path d="M180,71.4v0.4c-0.4,1.4-1.4,2.3-2.7,2.9c-1.8,0.9-3.6,1.8-5.5,2.6c-0.5,0.2-0.7,0.6-0.9,1.1c-1.5,4.2-2.9,8.4-4.4,12.6
			c-0.2,0.6-0.6,1-1.2,1.3c-0.7,0.3-1.4,0.6-2.3,1c0.4-4.2,0.9-8.2,1.3-12.3c-0.3,0.2-0.6,0.3-0.8,0.4c-3,1.4-6.1,2.4-9.4,2.7
			c-1,0.1-1.9-0.1-2.7-0.9c-1.5-1.5-3-3-4.5-4.6c0.8-0.6,1.5-0.9,2.4-0.5c1.5,0.6,3,1,4.5,1.5c0.4,0.2,0.8,0.1,1.2-0.1
			c2.1-1,4.2-2,6.3-3c-1.9-1-6-3.2-7.3-4.1c0-0.1,0-0.2,0-0.3c0.9-0.4,1.9-0.9,2.8-1.3c0.1-0.1,0.3,0,0.5,0c2.3,0.8,6.7,2.2,9.2,3.1
			c2.3-1.1,4.5-2.2,6.8-3.3c1.6-0.8,3.2-0.8,4.9-0.5C179,70.4,179.6,70.7,180,71.4z"/>
	</g>
</g>
</svg>
