<?xml version="1.0" encoding="utf-8"?>
<!-- Generator: Adobe Illustrator 24.0.2, SVG Export Plug-In . SVG Version: 6.00 Build 0)  -->
<svg version="1.1" id="Layer_1" xmlns="http://www.w3.org/2000/svg" xmlns:xlink="http://www.w3.org/1999/xlink" x="0px" y="0px"
	 viewBox="0 0 214 208" style="enable-background:new 0 0 214 208;" xml:space="preserve">
<style type="text/css">
	.st0{fill:#24315E;}
	.st1{fill:#FFFFFF;}
	.st2{fill:#F76D6D;}
	.st3{fill:#F7E9A0;}
	.st4{fill:none;stroke:#24315E;stroke-width:2.9431;stroke-linecap:round;stroke-miterlimit:10;}
	.st5{fill:#24315E;stroke:#24315E;}
</style>
<ellipse class="st0" cx="91" cy="200" rx="40" ry="8"/>
<path class="st0" d="M213.8,71.3v0.6c-0.6,2.1-2.1,3.5-4.1,4.4c-2.7,1.4-5.4,2.7-8.3,3.9c-0.8,0.3-1.1,0.9-1.4,1.7
	c-2.3,6.3-4.4,12.6-6.6,18.9c-0.3,0.9-0.9,1.5-1.8,2c-1.1,0.5-2.1,0.9-3.5,1.5c0.6-6.3,1.4-12.3,2-18.5c-0.5,0.3-0.9,0.5-1.2,0.6
	c-4.5,2.1-9.2,3.6-14.1,4.1c-1.5,0.2-2.9-0.2-4.1-1.4c-2.3-2.3-4.5-4.5-6.8-6.9c1.2-0.9,2.3-1.4,3.6-0.8c2.3,0.9,4.5,1.5,6.8,2.3
	c0.6,0.3,1.2,0.2,1.8-0.2c3.2-1.5,6.3-3,9.5-4.5c-2.9-1.5-9-4.8-11-6.2c0-0.2,0-0.3,0-0.5c1.4-0.6,2.9-1.4,4.2-2
	c0.2-0.2,0.5,0,0.8,0c3.5,1.2,10.1,3.3,13.8,4.7c3.5-1.7,6.8-3.3,10.2-5c2.4-1.2,4.8-1.2,7.4-0.8C212.2,69.8,213.1,70.2,213.8,71.3z
	"/>
<circle class="st1" cx="90.5" cy="71.5" r="37.5"/>
<path class="st2" d="M90.6,0c-40,0-72.6,32.5-72.6,72.5c0,2.3,0.2,4.5,0.5,6.9c2.1,4.7,5.3,8.9,9.2,12.6c3.5,3.5,7.4,6.2,11.6,8.6
	c13.4,7.4,28,10.2,43.2,10.7c7.5,0.2,14.9-0.3,22.3-1.4c6.9-1.1,13.8-2.6,20.5-4.7c0.2,0,0.3-0.2,0.6-0.2c3.9-1.1,8-2.3,11.7-3.8
	c0.2,0,0.5,0,0.6-0.1c7.5-2.6,14.9-5.7,22.1-9c1.8-6.9,2.9-13.5,2.9-19.8C163.2,32.5,130.7,0,90.6,0z M90.6,108.9
	c-20.2,0-36.4-16.4-36.4-36.4c0-20.2,16.4-36.4,36.4-36.4c20.2,0,36.4,16.4,36.4,36.4S110.8,108.9,90.6,108.9z M142.1,114.1
	c-0.3,0.2-0.6,0.5-0.9,0.6c-0.2,0.2-0.5,0.2-0.6,0.3c-9,4.5-18.2,8.3-27.8,11.3c-9.2,2.9-18.5,5-28,6.2c-8.3,0.9-16.6,1.2-24.8,0.6
	c-8-0.6-16-2-23.5-4.5c19.3,35.5,47.6,67.2,49.4,69.3c2.6,2.9,7.1,2.9,9.8,0c2.1-2.4,42.9-48.1,60.1-91.7
	C151.3,109,146.8,111.7,142.1,114.1z"/>
<path class="st3" d="M165.7,92.8c0.2,0,0.2,0,0.3-0.2c0.5-0.2,0.8-0.8,1.2-0.2c0.5,0.6-0.2,0.9-0.5,1.2c-1.5,1.2-3,2.4-4.5,3.5
	c-6.3,4.7-12.9,8.9-20,12.5c-0.3,0.2-0.6,0.5-0.9,0.6c-0.2,0.2-0.5,0.2-0.6,0.3c-9,4.5-18.2,8.3-27.8,11.3c-9.2,2.9-18.5,5-28,6.2
	c-8.3,0.9-16.6,1.2-24.8,0.6c-8.1-0.6-16.1-2.1-23.8-4.5c-6.5-2.1-12.6-5.1-18.2-8.9c-5.1-3.8-9.5-8.1-12.8-13.5
	C-1.5,91-1.7,80.2,4.4,69.2c4.1-7.4,8.6-13.8,14.8-19.4l1.1-1.1c0,0-0.9,1.8-1.1,2.3c-2.9,4.5-3.9,9.8-5,15C14,66.5,14,67.1,14,67.5
	c-0.5,1.5-0.5,3-0.5,4.5c0.5,9.8,4.8,17.9,11.9,24.5c3.5,3.5,7.4,6.2,11.6,8.6c13.4,7.4,28,10.2,43.2,10.7
	c7.5,0.2,14.9-0.3,22.3-1.5c6.9-1.1,13.8-2.6,20.5-4.7c0.2,0,0.3-0.2,0.5-0.2c3.9-1.1,8-2.3,11.7-3.8c0.2,0,0.5,0,0.6-0.1
	c9.9-3.5,19.6-7.7,28.9-12.3C165.1,93.2,165.4,92.9,165.7,92.8z"/>
<path class="st4" d="M74.2,63v3.3"/>
<path class="st4" d="M108.5,63v3.3"/>
<path class="st5" d="M89.1,69.6L89.1,69.6L89.1,69.6c1.2,0.8,2.1,1.4,3.2,1.4c1,0,2-0.5,3.2-1.4c0.8-0.5,1.5-0.4,1.9-0.1
	c0.2,0.3,0.3,0.6,0.3,0.8c0,0.3-0.2,0.6-0.6,1c-1.4,1.3-3.1,1.8-4.8,2c-2,0-3.5-0.7-4.7-2c-0.4-0.4-0.5-0.7-0.6-1
	c0-0.3,0.1-0.5,0.4-0.8C87.7,69.1,88.5,69.1,89.1,69.6z"/>
</svg>
