<?xml version="1.0" encoding="utf-8"?>
<!-- Generator: Adobe Illustrator 22.0.1, SVG Export Plug-In . SVG Version: 6.00 Build 0)  -->
<svg version="1.1" id="Capa_1" xmlns="http://www.w3.org/2000/svg" xmlns:xlink="http://www.w3.org/1999/xlink" x="0px" y="0px"
	 viewBox="0 0 512 612" style="enable-background:new 0 0 512 612;" xml:space="preserve">
<style type="text/css">
	.st0{fill:#174EFF;stroke:#000000;stroke-width:20;stroke-miterlimit:10;}
	.st1{fill:none;}
	.st2{font-family:'MyriadPro-Semibold';}
	.st3{font-size:72px;}
</style>
<path class="st0" d="M256,129.8c-82.7,0-150.2,67.5-150.2,150.2c0,28,7.9,55.2,22.6,78.8L255,563c1.5,2.4,4.9,2.3,6.4-0.1
	l123.5-206.1c13.8-23.1,21.2-49.7,21.2-76.8C406.1,197.3,338.7,129.8,256,129.8z M256,340.2c-40.8,0-72.1-40.7-55.8-83.4
	c5.5-14.5,16.9-26.2,31.3-32c43.1-17.6,84.6,14.3,84.6,55.3C316.1,312.7,289.8,340.2,256,340.2z"/>
<rect x="45.6" y="60.4" class="st1" width="403" height="92"/>
<text transform="matrix(1 0 0 1 87.8739 111.5189)" class="st2 st3">END GATE</text>
</svg>
