<?xml version="1.0" encoding="utf-8"?>
<!-- Generator: Adobe Illustrator 23.1.1, SVG Export Plug-In . SVG Version: 6.00 Build 0)  -->
<svg version="1.1" id="Capa_1" xmlns="http://www.w3.org/2000/svg" xmlns:xlink="http://www.w3.org/1999/xlink" x="0px" y="0px"
	 viewBox="0 0 512 583" style="enable-background:new 0 0 512 583;" xml:space="preserve">
<style type="text/css">
	.st0{fill:#FFCC33;}
	.st1{fill:none;}
</style>
<path class="st0" d="M256,100.8c-82.7,0-150.2,67.5-150.2,150.2c0,28,7.9,55.2,22.6,78.8L255,534c1.5,2.4,4.9,2.3,6.4-0.1
	l123.5-206.1c13.8-23.1,21.2-49.7,21.2-76.8C406.1,168.3,338.7,100.8,256,100.8z M256,311.2c-40.8,0-72.1-40.7-55.8-83.4
	c5.5-14.5,16.9-26.2,31.3-32c43.1-17.6,84.6,14.3,84.6,55.3C316.1,283.7,289.8,311.2,256,311.2z"/>
<rect x="121" y="35" class="st1" width="255" height="92"/>
</svg>
