<?xml version="1.0" encoding="utf-8"?>
<!-- Generator: Adobe Illustrator 23.1.1, SVG Export Plug-In . SVG Version: 6.00 Build 0)  -->
<svg version="1.1" id="Capa_1" xmlns="http://www.w3.org/2000/svg" xmlns:xlink="http://www.w3.org/1999/xlink" x="0px" y="0px"
	 viewBox="0 0 512 576" style="enable-background:new 0 0 512 576;" xml:space="preserve">
<style type="text/css">
	.st0{fill:#ED2626;}
	.st1{fill:none;}
	.st2{enable-background:new    ;}
</style>
<path class="st0" d="M256,93.8c-82.7,0-150.2,67.5-150.2,150.2c0,28,7.9,55.2,22.6,78.8L255,527c1.5,2.4,4.9,2.3,6.4-0.1
	l123.5-206.1c13.8-23.1,21.2-49.7,21.2-76.8C406.1,161.3,338.7,93.8,256,93.8z M256,304.2c-40.8,0-72.1-40.7-55.8-83.4
	c5.5-14.5,16.9-26.2,31.3-32c43.1-17.6,84.6,14.3,84.6,55.3C316.1,276.7,289.8,304.2,256,304.2z"/>
<rect x="51.4" y="28" class="st1" width="403" height="92"/>
<g class="st2">
	<path d="M66.2,69.5c2.9,1.7,7.2,3.1,11.7,3.1c5.7,0,8.9-2.7,8.9-6.6c0-3.7-2.4-5.8-8.6-8.1C70.1,55,65,50.7,65,43.8
		c0-7.9,6.6-14,17.1-14c5.3,0,9.1,1.2,11.7,2.4l-2.2,7.1C89.9,38.4,86.5,37,82,37c-5.6,0-8.1,3-8.1,5.8c0,3.7,2.8,5.5,9.3,8
		c8.4,3.2,12.5,7.4,12.5,14.4c0,7.8-5.9,14.5-18.4,14.5c-5.1,0-10.4-1.4-13.1-3L66.2,69.5z"/>
	<path d="M113,38H99.2v-7.4h36.7V38h-14v41.1H113V38z"/>
	<path d="M146,65.4l-4.2,13.8h-9.1l15.6-48.5h11.3l15.8,48.5h-9.5l-4.4-13.8H146z M159.9,58.7l-3.8-12c-0.9-3-1.7-6.3-2.4-9.1h-0.1
		c-0.7,2.8-1.4,6.2-2.3,9.1l-3.7,12C147.6,58.7,159.9,58.7,159.9,58.7z"/>
	<path d="M182.1,31.2c3.3-0.6,8.3-1,13.4-1c7,0,11.7,1.2,15,3.9c2.7,2.2,4.2,5.6,4.2,9.7c0,6.3-4.2,10.5-8.8,12.2v0.2
		c3.5,1.3,5.5,4.7,6.8,9.4c1.5,6,2.8,11.7,3.8,13.5h-9.1c-0.7-1.4-1.9-5.4-3.2-11.4c-1.4-6.3-3.7-8.4-8.7-8.5H191v19.9h-8.8
		L182.1,31.2L182.1,31.2z M190.9,52.7h5.3c6,0,9.7-3.2,9.7-8c0-5.3-3.7-7.8-9.5-7.8c-2.8,0-4.6,0.2-5.5,0.4V52.7z"/>
	<path d="M232.7,38h-13.8v-7.4h36.7V38h-14v41.1h-8.9V38z"/>
	<path d="M315,76.9c-3.1,1.2-9.1,2.7-15.6,2.7c-8.2,0-14.4-2.1-19-6.5c-4.3-4.1-6.8-10.5-6.8-17.9c0-15.3,10.9-25.2,27-25.2
		c6,0,10.7,1.2,12.9,2.3l-1.9,7.1c-2.7-1.2-5.9-2.1-11-2.1c-10.4,0-17.6,6.1-17.6,17.4c0,11,6.8,17.6,16.8,17.6c3.2,0,5.5-0.4,6.7-1
		v-12h-8.6v-7H315V76.9z"/>
	<path d="M333.8,65.4l-4.2,13.8h-9.1L336,30.6h11.3l15.8,48.5h-9.5l-4.4-13.8h-15.4V65.4z M347.7,58.7l-3.8-12
		c-0.9-3-1.7-6.3-2.4-9.1h-0.1c-0.7,2.8-1.4,6.2-2.3,9.1l-3.7,12C335.4,58.7,347.7,58.7,347.7,58.7z"/>
	<path d="M373.3,38h-13.8v-7.4h36.7V38h-14v41.1h-8.9L373.3,38L373.3,38z"/>
	<path d="M429,57.6h-18.3v14.3h20.5v7.3h-29.3V30.6h28.2v7.3h-19.4v12.5H429V57.6z"/>
</g>
</svg>
