<?xml version="1.0" encoding="utf-8"?>
<!-- Generator: Adobe Illustrator 22.0.1, SVG Export Plug-In . SVG Version: 6.00 Build 0)  -->
<svg version="1.1" id="Layer_1" xmlns="http://www.w3.org/2000/svg" xmlns:xlink="http://www.w3.org/1999/xlink" x="0px" y="0px"
	 viewBox="0 0 512 512" style="enable-background:new 0 0 512 512;" xml:space="preserve">
<g id="Page-1">
	<g id="_x30_14---Left-Turn-Arrow">
		<path id="Shape" d="M69.7,56.9l35.8,99.8l10.2,28.5c1.1,3.1,3.8,5.3,7.1,5.8c3.3,0.4,6.5-1,8.4-3.6l30.4-43.4l175.3,122.7
			c4.7,3.3,7.5,8.7,7.5,14.5v222.1c0,4.9,4,8.8,8.8,8.8h88.3c4.9,0,8.8-4,8.8-8.8V248.9c0-20.2-9.8-39-26.3-50.6l-79.6-55.8
			L222.2,57l30.4-43.3c1.9-2.7,2.2-6.2,0.6-9.1S248.7,0,245.4,0L61.7,0.3c-2.8,0.1-5.4,1.5-7,3.8c-1.6,2.3-2,5.2-1.2,7.9L69.7,56.9z
			"/>
	</g>
</g>
</svg>
