<?xml version="1.0" encoding="utf-8"?>
<!-- Generator: Adobe Illustrator 22.0.1, SVG Export Plug-In . SVG Version: 6.00 Build 0)  -->
<svg version="1.1" id="Layer_1" xmlns="http://www.w3.org/2000/svg" xmlns:xlink="http://www.w3.org/1999/xlink" x="0px" y="0px"
	 viewBox="0 0 512 512" style="enable-background:new 0 0 512 512;" xml:space="preserve">
<g id="Page-1">
	<g id="_x30_08---Left-Turn-Arrow" transform="translate(-1)">
		<path id="Shape" d="M19.1,79.9C7.5,91.5,1,107.2,1,123.6v379.6c0,4.9,4,8.8,8.8,8.8h88.3c4.9,0,8.8-4,8.8-8.8V176.6
			c0-4.9,4-8.8,8.8-8.8h229.5v53c0,3.3,1.8,6.3,4.7,7.8c2.9,1.5,6.4,1.3,9.1-0.6l24.7-17.5l86.6-61.2l39-27.5
			c2.3-1.7,3.6-4.3,3.6-7.2s-1.4-5.5-3.6-7.2L359,1.7c-2.7-1.9-6.2-2.2-9.1-0.6s-4.7,4.5-4.7,7.8v53H62.8
			C46.4,61.8,30.7,68.3,19.1,79.9z"/>
	</g>
</g>
</svg>
