<?xml version="1.0" encoding="utf-8"?>
<!-- Generator: Adobe Illustrator 22.0.1, SVG Export Plug-In . SVG Version: 6.00 Build 0)  -->
<svg version="1.1" id="Layer_1" xmlns="http://www.w3.org/2000/svg" xmlns:xlink="http://www.w3.org/1999/xlink" x="0px" y="0px"
	 viewBox="0 0 512 512" style="enable-background:new 0 0 512 512;" xml:space="preserve">
<g id="Page-1">
	<g id="_x30_08---Left-Turn-Arrow" transform="translate(-1)">
		<path id="Shape" d="M451.2,61.8H168.7v-53c0-3.3-1.8-6.3-4.7-7.8c-2.9-1.5-6.4-1.3-9.1,0.6L4.6,107.3C2.3,109,1,111.7,1,114.5
			s1.4,5.5,3.6,7.2l39,27.5l86.6,61.2l24.7,17.5c2.7,1.9,6.2,2.2,9.1,0.6s4.7-4.5,4.7-7.8v-53h229.5c4.9,0,8.8,4,8.8,8.8v326.6
			c0,4.9,4,8.8,8.8,8.8h88.3c4.9,0,8.8-4,8.8-8.8V123.6c0-16.4-6.5-32.1-18.1-43.7C483.3,68.3,467.6,61.8,451.2,61.8z"/>
	</g>
</g>
</svg>
