<?xml version="1.0" encoding="utf-8"?>
<!-- Generator: Adobe Illustrator 24.0.2, SVG Export Plug-In . SVG Version: 6.00 Build 0)  -->
<svg version="1.1" id="Layer_1" xmlns="http://www.w3.org/2000/svg" xmlns:xlink="http://www.w3.org/1999/xlink" x="0px" y="0px"
	 viewBox="0 0 204.58 59.42" style="enable-background:new 0 0 204.58 59.42;" xml:space="preserve">
<style type="text/css">
	.st0{fill:#24325E;}
	.st1{fill:#FFFFFF;}
	.st2{fill:#F26D6E;}
	.st3{fill:#F6E99F;}
	.st4{fill:none;stroke:#24325E;stroke-width:0.8259;stroke-linecap:round;stroke-miterlimit:10;}
	.st5{fill:#24325E;stroke:#24325E;stroke-width:0.2806;}
</style>
<g>
	<path class="st0" d="M99.43,41.24h-8.77V28.63c0-0.97-0.1-1.64-0.3-2.02s-0.57-0.56-1.1-0.56c-0.98,0-1.48,0.87-1.48,2.6v12.59
		h-8.77V28.63c0-0.97-0.11-1.64-0.32-2.02s-0.58-0.56-1.11-0.56c-0.97,0-1.45,0.87-1.45,2.6v12.59h-8.77V26.85
		c0-2.63,0.88-4.86,2.65-6.69s3.91-2.75,6.42-2.75c2.59,0,4.92,1.09,6.98,3.28c2.3-2.19,4.59-3.28,6.89-3.28
		c2.92,0,5.27,1.06,7.03,3.19c1.39,1.66,2.09,4.07,2.09,7.24V41.24z"/>
	<path class="st0" d="M116.34,32.47v9.07c-0.72,0.13-1.38,0.19-1.97,0.19c-3.52,0-6.45-1.16-8.79-3.47s-3.52-5.21-3.52-8.7
		c0-3.39,1.18-6.27,3.55-8.63s5.25-3.54,8.64-3.54c3.78,0,6.76,1.11,8.94,3.32s3.27,5.23,3.27,9.06v11.46h-8.77V30.41
		c0-1.23-0.3-2.22-0.9-2.95s-1.41-1.1-2.43-1.1c-0.92,0-1.72,0.34-2.39,1.01s-1.01,1.47-1.01,2.39c0,0.97,0.3,1.77,0.91,2.39
		s1.38,0.94,2.32,0.94C114.98,33.08,115.69,32.88,116.34,32.47z"/>
	<path class="st0" d="M138.63,49.89h-8.77v-19.5c0-3.58,0.94-6.49,2.81-8.74c1.08-1.3,2.45-2.33,4.11-3.09s3.37-1.15,5.12-1.15
		c3.48,0,6.42,1.17,8.81,3.52s3.59,5.22,3.59,8.63c0,3.31-1.19,6.17-3.56,8.58c-2.38,2.41-5.19,3.61-8.44,3.61
		c-0.53,0-1.31-0.05-2.34-0.16v-9.66c0.72,0.58,1.44,0.87,2.16,0.87c0.91,0,1.68-0.34,2.33-1.01s0.97-1.47,0.97-2.39
		s-0.34-1.71-1.01-2.36s-1.48-0.97-2.41-0.97c-2.25,0-3.38,1.55-3.38,4.66V49.89z"/>
	<path class="st0" d="M165.2,49.89h-8.77v-19.5c0-3.58,0.94-6.49,2.81-8.74c1.08-1.3,2.45-2.33,4.11-3.09s3.37-1.15,5.12-1.15
		c3.48,0,6.42,1.17,8.81,3.52s3.59,5.22,3.59,8.63c0,3.31-1.19,6.17-3.56,8.58c-2.38,2.41-5.19,3.61-8.44,3.61
		c-0.53,0-1.31-0.05-2.34-0.16v-9.66c0.72,0.58,1.44,0.87,2.16,0.87c0.91,0,1.68-0.34,2.33-1.01S172,30.3,172,29.38
		s-0.34-1.71-1.01-2.36s-1.48-0.97-2.41-0.97c-2.25,0-3.38,1.55-3.38,4.66V49.89z"/>
	<path class="st0" d="M186.55,51.48v-7.62c1.19,0.5,2.23,0.75,3.12,0.75c2.84,0,4.69-1.6,5.53-4.8c-1.53,0.91-3.03,1.36-4.5,1.36
		c-2.17,0-3.96-0.81-5.37-2.43s-2.11-3.68-2.11-6.18v-14.7h8.77v12.56c0,1.39,0.58,2.09,1.73,2.09c1.11,0,1.66-0.77,1.66-2.3V17.87
		h8.77v20.86c0,3.89-1.09,7.03-3.28,9.42c-2.61,2.84-5.77,4.27-9.47,4.27C189.78,52.42,188.16,52.11,186.55,51.48z"/>
</g>
<g>
	<ellipse class="st0" cx="26.38" cy="56.57" rx="11.22" ry="2.24"/>
	<path class="st0" d="M60.84,20.45v0.17c-0.17,0.59-0.59,0.98-1.15,1.23c-0.76,0.39-1.52,0.76-2.33,1.09
		c-0.22,0.08-0.31,0.25-0.39,0.48c-0.65,1.77-1.23,3.54-1.85,5.3c-0.08,0.25-0.25,0.42-0.51,0.56c-0.31,0.14-0.59,0.25-0.98,0.42
		c0.17-1.77,0.39-3.45,0.56-5.19c-0.14,0.08-0.25,0.14-0.34,0.17c-1.26,0.59-2.58,1.01-3.96,1.15c-0.42,0.06-0.81-0.06-1.15-0.39
		c-0.65-0.65-1.26-1.26-1.91-1.94c0.34-0.25,0.65-0.39,1.01-0.22c0.65,0.25,1.26,0.42,1.91,0.65c0.17,0.08,0.34,0.06,0.51-0.06
		c0.9-0.42,1.77-0.84,2.67-1.26c-0.81-0.42-2.53-1.35-3.09-1.74c0-0.06,0-0.08,0-0.14c0.39-0.17,0.81-0.39,1.18-0.56
		c0.06-0.06,0.14,0,0.22,0c0.98,0.34,2.83,0.93,3.87,1.32c0.98-0.48,1.91-0.93,2.86-1.4c0.67-0.34,1.35-0.34,2.08-0.22
		C60.39,20.03,60.64,20.15,60.84,20.45z"/>
	<circle class="st1" cx="26.24" cy="20.51" r="10.52"/>
	<path class="st2" d="M26.27,0.45C15.05,0.45,5.9,9.57,5.9,20.79c0,0.65,0.06,1.26,0.14,1.94c0.59,1.32,1.49,2.5,2.58,3.54
		c0.98,0.98,2.08,1.74,3.26,2.41c3.76,2.08,7.86,2.86,12.12,3c2.1,0.06,4.18-0.08,6.26-0.39c1.94-0.31,3.87-0.73,5.75-1.32
		c0.06,0,0.08-0.06,0.17-0.06c1.09-0.31,2.24-0.65,3.28-1.07c0.06,0,0.14,0,0.17-0.03c2.1-0.73,4.18-1.6,6.2-2.53
		c0.51-1.94,0.81-3.79,0.81-5.56C46.64,9.57,37.52,0.45,26.27,0.45z M26.27,31.01c-5.67,0-10.21-4.6-10.21-10.21
		c0-5.67,4.6-10.21,10.21-10.21c5.67,0,10.21,4.6,10.21,10.21S31.94,31.01,26.27,31.01z M40.72,32.46
		c-0.08,0.06-0.17,0.14-0.25,0.17c-0.06,0.06-0.14,0.06-0.17,0.08c-2.53,1.26-5.11,2.33-7.8,3.17c-2.58,0.81-5.19,1.4-7.86,1.74
		c-2.33,0.25-4.66,0.34-6.96,0.17c-2.24-0.17-4.49-0.56-6.59-1.26c5.42,9.96,13.36,18.86,13.86,19.45c0.73,0.81,1.99,0.81,2.75,0
		c0.59-0.67,12.04-13.5,16.86-25.73C43.3,31.03,42.04,31.79,40.72,32.46z"/>
	<path class="st3" d="M47.34,26.49c0.06,0,0.06,0,0.08-0.06c0.14-0.06,0.22-0.22,0.34-0.06c0.14,0.17-0.06,0.25-0.14,0.34
		c-0.42,0.34-0.84,0.67-1.26,0.98c-1.77,1.32-3.62,2.5-5.61,3.51c-0.08,0.06-0.17,0.14-0.25,0.17c-0.06,0.06-0.14,0.06-0.17,0.08
		c-2.53,1.26-5.11,2.33-7.8,3.17c-2.58,0.81-5.19,1.4-7.86,1.74c-2.33,0.25-4.66,0.34-6.96,0.17c-2.27-0.17-4.52-0.59-6.68-1.26
		c-1.82-0.59-3.54-1.43-5.11-2.5c-1.43-1.07-2.67-2.27-3.59-3.79c-1.91-3-1.96-6.03-0.25-9.12c1.15-2.08,2.41-3.87,4.15-5.44
		l0.31-0.31c0,0-0.25,0.51-0.31,0.65c-0.81,1.26-1.09,2.75-1.4,4.21c-0.06,0.14-0.06,0.31-0.06,0.42c-0.14,0.42-0.14,0.84-0.14,1.26
		c0.14,2.75,1.35,5.02,3.34,6.87c0.98,0.98,2.08,1.74,3.26,2.41c3.76,2.08,7.86,2.86,12.12,3c2.1,0.06,4.18-0.08,6.26-0.42
		c1.94-0.31,3.87-0.73,5.75-1.32c0.06,0,0.08-0.06,0.14-0.06c1.09-0.31,2.24-0.65,3.28-1.07c0.06,0,0.14,0,0.17-0.03
		c2.78-0.98,5.5-2.16,8.11-3.45C47.18,26.6,47.26,26.52,47.34,26.49z"/>
	<path class="st4" d="M21.67,18.13v0.93"/>
	<path class="st4" d="M31.29,18.13v0.93"/>
	<path class="st5" d="M25.85,19.98L25.85,19.98L25.85,19.98c0.34,0.22,0.59,0.39,0.9,0.39c0.28,0,0.56-0.14,0.9-0.39
		c0.22-0.14,0.42-0.11,0.53-0.03c0.06,0.08,0.08,0.17,0.08,0.22c0,0.08-0.06,0.17-0.17,0.28c-0.39,0.36-0.87,0.51-1.35,0.56
		c-0.56,0-0.98-0.2-1.32-0.56c-0.11-0.11-0.14-0.2-0.17-0.28c0-0.08,0.03-0.14,0.11-0.22C25.46,19.84,25.68,19.84,25.85,19.98z"/>
</g>
<g>
</g>
<g>
</g>
<g>
</g>
<g>
</g>
<g>
</g>
<g>
</g>
</svg>
