<?xml version="1.0" encoding="utf-8"?>
<!-- Generator: Adobe Illustrator 24.0.2, SVG Export Plug-In . SVG Version: 6.00 Build 0)  -->
<svg version="1.1" id="Layer_1" xmlns="http://www.w3.org/2000/svg" xmlns:xlink="http://www.w3.org/1999/xlink" x="0px" y="0px"
	 viewBox="0 0 137.78 36.29" style="enable-background:new 0 0 137.78 36.29;" xml:space="preserve">
<style type="text/css">
	.st0{fill:#24325E;}
</style>
<g>
	<path class="st0" d="M32.63,24.18h-8.77V11.57c0-0.97-0.1-1.64-0.3-2.02s-0.57-0.56-1.1-0.56c-0.98,0-1.48,0.87-1.48,2.6v12.59
		h-8.77V11.57c0-0.97-0.11-1.64-0.32-2.02s-0.58-0.56-1.11-0.56c-0.97,0-1.45,0.87-1.45,2.6v12.59H0.57V9.79
		c0-2.63,0.88-4.86,2.65-6.69s3.91-2.75,6.42-2.75c2.59,0,4.92,1.09,6.98,3.28c2.3-2.19,4.59-3.28,6.89-3.28
		c2.92,0,5.27,1.06,7.03,3.19c1.39,1.66,2.09,4.07,2.09,7.24V24.18z"/>
	<path class="st0" d="M49.55,15.41v9.07c-0.72,0.13-1.38,0.19-1.97,0.19c-3.52,0-6.45-1.16-8.79-3.47s-3.52-5.21-3.52-8.7
		c0-3.39,1.18-6.27,3.55-8.63s5.25-3.54,8.64-3.54c3.78,0,6.76,1.11,8.94,3.32s3.27,5.23,3.27,9.06v11.46h-8.77V13.35
		c0-1.23-0.3-2.22-0.9-2.95s-1.41-1.1-2.43-1.1c-0.92,0-1.72,0.34-2.39,1.01s-1.01,1.47-1.01,2.39c0,0.97,0.3,1.77,0.91,2.39
		s1.38,0.94,2.32,0.94C48.18,16.02,48.89,15.82,49.55,15.41z"/>
	<path class="st0" d="M71.83,32.83h-8.77v-19.5c0-3.58,0.94-6.49,2.81-8.74c1.08-1.3,2.45-2.33,4.11-3.09s3.37-1.15,5.12-1.15
		c3.48,0,6.42,1.17,8.81,3.52s3.59,5.22,3.59,8.63c0,3.31-1.19,6.17-3.56,8.58c-2.38,2.41-5.19,3.61-8.44,3.61
		c-0.53,0-1.31-0.05-2.34-0.16v-9.66c0.72,0.58,1.44,0.87,2.16,0.87c0.91,0,1.68-0.34,2.33-1.01s0.97-1.47,0.97-2.39
		s-0.34-1.71-1.01-2.36s-1.48-0.97-2.41-0.97c-2.25,0-3.38,1.55-3.38,4.66V32.83z"/>
	<path class="st0" d="M98.41,32.83h-8.77v-19.5c0-3.58,0.94-6.49,2.81-8.74c1.08-1.3,2.45-2.33,4.11-3.09s3.37-1.15,5.12-1.15
		c3.48,0,6.42,1.17,8.81,3.52s3.59,5.22,3.59,8.63c0,3.31-1.19,6.17-3.56,8.58c-2.38,2.41-5.19,3.61-8.44,3.61
		c-0.53,0-1.31-0.05-2.34-0.16v-9.66c0.72,0.58,1.44,0.87,2.16,0.87c0.91,0,1.68-0.34,2.33-1.01s0.97-1.47,0.97-2.39
		s-0.34-1.71-1.01-2.36s-1.48-0.97-2.41-0.97c-2.25,0-3.38,1.55-3.38,4.66V32.83z"/>
	<path class="st0" d="M119.75,34.42V26.8c1.19,0.5,2.23,0.75,3.12,0.75c2.84,0,4.69-1.6,5.53-4.8c-1.53,0.91-3.03,1.36-4.5,1.36
		c-2.17,0-3.96-0.81-5.37-2.43s-2.11-3.68-2.11-6.18V0.81h8.77v12.56c0,1.39,0.58,2.09,1.73,2.09c1.11,0,1.66-0.77,1.66-2.3V0.81
		h8.77v20.86c0,3.89-1.09,7.03-3.28,9.42c-2.61,2.84-5.77,4.27-9.47,4.27C122.98,35.36,121.36,35.05,119.75,34.42z"/>
</g>
<g>
</g>
<g>
</g>
<g>
</g>
<g>
</g>
<g>
</g>
<g>
</g>
</svg>
